<?xml version="1.0" encoding="UTF-8"?>
<svg id="_レイヤー_1" data-name="レイヤー 1" xmlns="http://www.w3.org/2000/svg" viewBox="0 0 251.89 54.73">
  <g>
    <path d="M9.77,7.6c.88,0,1.55.2,2.19.61.82.51,1.33,1.38,1.33,2.28,0,1.02-.48,1.68-1.1,2.14s-1.28.66-2.14.66c-1.22,0-2.29-.51-3.01-1.51-.24-.34-.51-.76-.51-.88,0-.05.05-.08.1-.08.1,0,.15.03.22.12.78.87,1.82,1.21,2.65,1.21.66,0,1.34-.24,1.67-.56.39-.39.49-.92.49-1.5,0-.61-.24-1.21-.82-1.55-.48-.27-.94-.32-1.36-.32-.87,0-1.7.39-2.48.82-.41.22-.76.44-1.11.65.03,1,.07,1.61.1,2.23.02.31.03.51.03.83,0,.44-.02.75-.14,1.09-.24.61-.53.8-.83.8-.29,0-.48-.15-.58-.56-.22-.92-.59-1.29-1.53-2.16-.48.39-.63.56-.78.73-.26.27-.46.32-.68.32-.25,0-.53-.12-.75-.25-.46-.27-.75-.73-.75-1.12,0-.49.34-.88.46-.88.07,0,.1.03.14.14.07.2.12.32.19.41.07.07.12.08.29.07.27-.03,1.09-.46,1.77-.83.6-.34,1.38-.82,1.94-1.16-.02-1.22-.02-2.35-.03-3.25-.65.1-1.31.22-1.84.22-.63,0-1.17-.36-1.6-.93-.27-.36-.37-.66-.37-.83,0-.14,0-.22.12-.22.1,0,.19.12.32.29.27.34.73.61,1.29.61.51,0,.99-.05,2.09-.29v-1.84c0-.53-.02-.71-.07-.82-.03-.27-.14-.34-.31-.39-.2-.07-.36-.08-.44-.08-.25,0-.39-.05-.39-.14s.07-.29.27-.41c.17-.1.48-.27.75-.27.34,0,.75.12,1.21.44.49.36.73.7.73.94,0,.22-.07.34-.15.46-.07.1-.15.14-.25.34-.15.32-.17.88-.19,1.36.61-.27.95-.49,1.17-.7.14-.12.44-.29.82-.29.7,0,1.02.27,1.02.56s-.05.41-.46.68c-.2.14-.75.39-1.12.54-.41.15-.95.34-1.5.48,0,.78,0,2.07.02,2.99,1.33-.73,2.57-1.17,3.91-1.17ZM3.25,11.63c.34.2.54.31.83.46.25.14.48.19.56.19.1,0,.17-.07.17-.24,0-.49,0-1.12-.02-1.67-.51.39-1.12.87-1.55,1.26ZM10.03,4.33c.41-.36,1.07-.56,1.68-.56.88,0,1.72.34,2.26.82.53.46.82,1.07.82,1.73,0,.49-.25.78-.65.78-.17,0-.32-.03-.51-.15-.15-.12-.27-.22-.51-.22-.14,0-.32,0-.53.02-.19.02-.37.05-.65.12-.24.05-.32.08-.41.08-.05,0-.14,0-.14-.08s.07-.12.22-.22c.22-.15.87-.56,1.12-.8.05-.05.12-.12.12-.22,0-.08-.02-.17-.07-.24-.44-.68-1.12-.92-1.8-.92-.27,0-.54.05-.71.1-.12.03-.2.08-.27.08s-.12-.02-.12-.08c0-.1.05-.17.14-.24Z"/>
    <path d="M18.46,5.8v9.18c0,.46-.32.66-.97.66-.49,0-.7-.15-.7-.59,0-1.26.1-2.52.1-7.55,0-2.45-.02-4.91-.12-7.38.88.36,1,.41,1.8.87h2.99c.58-.66.71-.76.85-.76.17,0,.31.1.92.59.27.22.37.34.37.48,0,.15-.12.29-.49.51v.68c0,1.79.03,3.01.03,3.42s-.32.59-.92.59c-.44,0-.61-.15-.61-.51v-.19h-3.26ZM21.72,1.38h-3.26v1.75h3.26v-1.75ZM21.72,3.52h-3.26v1.89h3.26v-1.89ZM22.22,12.1v.75c0,.49-.29.68-.88.68-.48,0-.66-.14-.66-.51,0-.41.05-.87.05-2.5,0-1.02-.02-2.02-.08-3.06.82.34.94.39,1.72.85h3.35c.56-.61.7-.71.83-.71.17,0,.31.1.88.56.25.2.36.31.36.44,0,.15-.1.24-.49.49v.58c0,1.53.02,2.65.02,2.99,0,.48-.29.63-.87.63-.46,0-.65-.14-.65-.54v-.65h-3.57ZM25.79,8.7h-3.57v3.01h3.57v-3.01ZM26.37,5.8v.1c0,.44-.29.61-.85.61-.48,0-.68-.14-.68-.51,0-.65.03-1.31.03-3.96,0-.63-.02-1.27-.07-1.92.83.36.95.43,1.73.87h3.11c.59-.66.73-.76.87-.76.17,0,.31.1.94.61.29.26.39.37.39.51,0,.19-.1.29-.46.49v1.14c0,9.28.02,10.61.02,11.08s-.15.87-.49,1.1c-.32.25-.75.37-1.38.37-.22,0-.29-.03-.32-.24-.1-.75-.41-.99-1.82-1.36-.08-.02-.08-.2,0-.2,1.14.07,1.43.08,2.18.08.17,0,.2-.03.2-.24v-7.79h-3.4ZM29.77,1.38h-3.4v1.75h3.4v-1.75ZM29.77,3.52h-3.4v1.89h3.4v-1.89Z"/>
    <path d="M39.24,10.84c-.1.34-.22.78-.22.9,0,.14.03.29.12.46.07.12.27.42.27.73,0,.32-.2.7-.65.7-.54,0-1.07-.22-1.63-.73-.71-.65-1.48-1.68-1.77-3.33-.15-.78-.22-1.85-.22-2.79,0-.73.03-1.53,0-2.36-.02-.37-.15-.73-.7-1.27-.08-.08-.12-.08-.12-.19,0-.14.07-.17.36-.17.36,0,.82.25,1.22.61.61.51.97,1.02.97,1.5,0,.22-.02.44-.15.66-.17.51-.29,1.36-.29,2.45s.15,1.8.37,2.38c.19.49.46.83.75.83.12,0,.27-.12.41-.31.53-.73.97-1.51,1.9-2.97.14-.2.25-.34.34-.34s.17.03.17.12-.03.2-.07.27c-.49,1.16-.85,2.06-1.07,2.86ZM45.13,5.47c1,.58,1.78,1.36,2.28,2.28.42.8.61,1.7.61,2.23s-.02.9-.25,1.22c-.17.24-.31.36-.6.36s-.46-.05-.63-.32c-.31-.48-.7-.76-1.78-.85-.2-.02-.25-.07-.25-.17s.15-.14.32-.19c.46-.14.92-.29,1.19-.41.27-.12.27-.31.27-.41,0-.44-.29-1.36-.82-2.16-.46-.7-1.04-1.27-1.77-1.73-.12-.08-.22-.14-.22-.24,0-.08.07-.12.15-.12.24,0,.87.15,1.5.51Z"/>
    <path d="M50.12,8.43c-.08.03-.19-.12-.12-.17,2.24-1.43,4.23-3.45,5.56-5.61.53-.88.95-1.77,1.24-2.65,2.4.65,2.41.66,2.41.87,0,.17-.14.24-.77.41,1.09,1.55,2.29,2.72,3.67,3.57,1.26.77,2.65,1.26,4.27,1.53.08.02.08.2,0,.2-.68.07-1.02.41-1.29,1.39-.08.24-.15.32-.29.32-.12,0-.34-.1-.63-.25-.71-.37-1.82-1.14-2.53-1.79-1.41-1.27-2.35-2.53-3.4-4.64-1.72,3.09-4.62,5.52-8.13,6.82ZM54.5,14.26v.6c0,.46-.31.66-1.04.66-.48,0-.68-.17-.68-.59,0-.63.05-1.26.05-3.77,0-.99-.02-1.97-.05-2.96.92.44,1.05.51,1.89.97h6.44c.65-.77.78-.87.92-.87.17,0,.31.1,1.04.71.34.29.44.41.44.54,0,.2-.1.31-.56.56v.78c0,2.06.05,3.48.05,3.94,0,.42-.37.68-1.05.68-.49,0-.7-.19-.7-.59v-.66h-6.75ZM61.25,9.55h-6.75v4.32h6.75v-4.32ZM58.56,6.32c.71-.92.92-1.05,1.04-1.05.15,0,.34.14,1.09.73.34.27.48.42.48.54s-.05.17-.22.17h-5.1c-.29,0-.59.03-.99.1l-.19-.63c.48.1.85.14,1.21.14h2.69Z"/>
    <path d="M73.13,7.31c1.87-1.46,3.21-2.07,4.74-2.07,1.27,0,2.26.37,3.01,1.1.75.71,1.02,1.62,1.02,2.57,0,1.29-.54,2.48-1.63,3.4-.76.65-1.73,1.17-2.99,1.56-.8.25-1.63.37-1.87.37-.08,0-.19-.03-.19-.15,0-.08.05-.15.12-.17.15-.05.65-.22,1.02-.39,1.21-.54,1.94-1.07,2.72-1.92.71-.76,1.12-1.68,1.12-2.77,0-.83-.29-1.48-.71-1.96-.48-.54-1.17-.9-2.07-.9-1.31,0-2.77.76-4.3,2.06v1.12c0,1.51.12,2.94.12,3.3,0,.27,0,.48-.02.97-.05,1.02-.37,1.55-.85,1.55-.22,0-.61-.17-.65-1.09-.03-.51-.41-1.21-1.53-2.29-.27.41-.48.76-.82,1.14-.22.24-.34.31-.71.31-.22,0-.54-.15-.54-.53,0-.43.1-.61.36-.92.82-.95,1.56-1.77,2.33-2.74.61-.78.99-1.24,1.33-1.82.02-.48.03-.9.02-1.36-.32.12-.71.31-1.22.54-.19.1-.41.25-.54.37-.14.12-.2.19-.39.19-.2,0-.36-.03-.61-.29-.58-.58-.78-1.02-.78-1.31,0-.25.12-.42.2-.42s.1.07.17.15c.24.31.48.56.87.56.46,0,1.41-.34,2.38-.75.03-1.02.07-1.65.07-2.19,0-.39,0-.71-.2-.92-.19-.19-.36-.22-.63-.32-.2-.07-.24-.08-.24-.2,0-.15.46-.36.85-.36.2,0,.56.07,1.02.37.7.46.92.68.92,1,0,.15-.1.34-.24.46-.1.1-.24.27-.27.49-.07.44-.1.73-.12,1.19.17-.07.29-.03.42.03s.24.12.46.29c.12.1.2.24.19.41-.02.14-.2.27-.36.42-.32.36-.61.85-.93,1.43l-.02.48ZM71.54,12c.17.08.31.15.41.15.08,0,.12-.07.12-.36,0-1.07,0-1.73.02-2.79-.68.87-1.14,1.5-1.68,2.29.36.24.71.48,1.14.7Z"/>
    <path d="M96.17,4.15c.41.29.85.54,1.19.61.46.08.97.1,1.39.19.41.08.8.14.8.76,0,.48-.44.63-.8.63-.32,0-.65-.05-1.12-.1-.34-.03-.56-.03-.88-.02-.56.02-1.09.08-1.65.15-.03,1.46-.02,2.77-.14,3.31-.15.66-.48,1.11-.8,1.34-.25.19-.63.25-.8.25-.36-.02-.49-.22-.59-.46-.14-.42-.41-.56-1.21-1.09-.14-.08-.22-.14-.22-.24,0-.08.07-.1.15-.1s.2.03.31.05c.51.1.95.19,1.38.19s.44-.08.51-.34c.15-.54.17-1.07.19-2.65-1.07.2-2.52.6-3.86,1.05-.02,1.04-.05,2.23-.05,2.77,0,.85.03,1.5.27,1.78.29.36.73.58,2.01.58.87,0,1.7-.07,2.52-.25.29-.07.46-.2.9-.2.34,0,.7.03.97.14.34.12.6.31.6.68,0,.51-.29.7-.94.82-.68.12-1.58.17-3.11.17-1.07,0-2.23-.2-2.79-.42-.51-.2-.95-.61-1.21-1.09-.25-.48-.36-1.14-.37-2.11-.02-.85,0-1.62-.02-2.4-1.43.59-1.85.8-2.06,1.02-.22.25-.37.29-.56.29-.36,0-.95-.36-1.28-.63-.42-.36-.71-.75-.71-1.09,0-.27.08-.41.19-.41.08,0,.12.05.29.19.12.1.25.19.39.27.1.07.32.14.51.14.15,0,.36-.03.56-.08.83-.24,1.8-.49,2.69-.76,0-.49-.02-1-.03-1.48-.02-.61-.03-.92-.14-1.16-.14-.32-.37-.44-.78-.53-.2-.03-.24-.07-.24-.14s.03-.15.14-.22c.27-.17.65-.25.85-.25.42,0,.95.24,1.48.73.32.29.41.53.41.71,0,.1-.02.24-.12.36-.1.12-.15.19-.17.36-.02.2-.03.53-.07,1.21,1.26-.36,2.55-.65,3.77-.95v-1.29c0-.97,0-1.46-.03-1.99-.02-.31-.15-.49-.39-.58-.39-.14-.53-.15-.7-.19-.08-.02-.12-.12-.12-.19s.12-.2.31-.32c.19-.12.41-.19.68-.19.46,0,1.19.32,1.68.82.19.19.22.36.22.51s-.05.31-.19.53c-.14.22-.15.6-.17,1.04-.02.58-.03,1.07-.05,1.56.53-.1,1.07-.2,1.39-.27-.12-.17-.46-.61-.63-.83-.1-.14-.14-.17-.14-.22,0-.07.03-.1.08-.1.07,0,.24.08.31.14Z"/>
    <path d="M111.4,13.34c0,.44.25.56,1.22.56,1.51,0,2.01-.05,2.24-.27.27-.24.53-.85,1.1-2.46.03-.08.19-.07.19.02-.03.68-.07,1.65-.07,1.99,0,.22.03.26.42.41.24.08.37.27.37.54,0,.51-.36.87-1.17,1.07-.65.17-1.61.24-2.94.24-2.38,0-3.06-.44-3.06-1.94,0-.37.03-.73.03-2.29v-3.25h-2.02c-.08,1.99-.42,3.5-1.1,4.64-.97,1.63-2.63,2.52-5.27,2.99-.08.02-.17-.2-.08-.24,2.12-.88,3.38-1.9,4.08-3.54.42-1.02.63-2.28.68-3.86h-3.13c-.36,0-.73.03-1.21.1l-.19-.63c.53.1.93.14,1.33.14h5.34v-3.48h-2.96c-.76,1.09-1.73,1.99-2.89,2.72-.07.05-.22-.07-.17-.14.9-1.21,1.62-2.45,2.09-3.74.27-.71.48-1.44.61-2.19,1.75.42,2.16.58,2.16.83,0,.22-.17.32-.65.37-.25.63-.54,1.21-.9,1.75h2.7v-1.8c0-.58-.02-1.12-.07-1.68,2.12.2,2.33.41,2.33.6,0,.17-.19.32-.61.46v2.43h2.43c.87-1.04,1.07-1.17,1.19-1.17.15,0,.34.14,1.16.82.37.31.51.46.51.58s-.05.17-.22.17h-5.07v3.48h3.84c.97-1.09,1.17-1.22,1.29-1.22.15,0,.34.14,1.21.85.39.32.53.48.53.6s-.05.17-.22.17h-5.07v5.39Z"/>
  </g>
  <g>
    <path d="M18.52,40.11c0,8.97-3.24,14.62-8.66,14.62S1.12,49.35,1.12,40.34s3.2-14.74,8.74-14.74,8.66,5.62,8.66,14.51ZM5.69,40.23c0,8.11.82,13.3,4.17,13.3s4.09-5.19,4.09-13.3-.78-13.42-4.09-13.42-4.17,5.27-4.17,13.42Z"/>
    <path d="M36.11,40.19c-1.17,1.87-2.92,2.89-5.15,2.89-4.56,0-7.64-3.39-7.64-8.39s3.35-9.09,8.58-9.09,8.85,4.49,8.85,11.15c0,8.07-3.32,12.25-7.8,15.25-1.87,1.25-4.02,2.22-6.32,2.73-.35,0-.62-.16-.94-.74-.39-.55-.27-1.01.2-1.05,2.22-.12,3.94-.55,5.38-1.4,3.04-1.83,4.6-5.26,5.03-11.35h-.2ZM27.88,34.45c0,3.9,1.29,7.14,4.02,7.14,1.64,0,2.92-1.01,4.02-3.43.35-.78.35-1.29.35-2.5,0-5.19-1.44-8.85-4.37-8.85-2.69,0-4.02,3.39-4.02,7.64Z"/>
    <path d="M63.09,46.74c0,4.41-3.2,8-8.66,8s-8.7-3.55-8.7-7.68c0-3.28,2.34-5.38,6.04-7.18-3.86-1.91-5.27-4.09-5.27-7.57s3.32-6.71,7.96-6.71,7.8,2.73,7.8,6.24c0,2.96-1.64,4.52-5.11,6.2,4.37,2.15,5.93,4.6,5.93,8.7ZM49.87,47.09c0,3.9,1.83,6.43,4.64,6.43s4.76-2.46,4.76-6.24c0-2.81-1.6-4.49-6.36-6.79-2.57,1.52-3.04,3.74-3.04,6.59ZM58.45,31.88c0-3.08-1.72-5.07-3.98-5.07-2.54,0-4.21,1.95-4.21,4.88,0,2.15.9,3.51,5.77,5.73,1.83-1.13,2.42-3.04,2.42-5.54Z"/>
    <path d="M77.72,50.17c3.28,0,4.06-.23,4.84-.94.9-.82,1.48-1.72,2.15-3,.16-.27.27-.31.62-.2s.43.23.39.51c-.47,1.99-1.44,5.46-2.11,7.49-2.65-.08-4.72-.08-7.53-.08s-5.15,0-7.72.08c-.39,0-.51-.04-.51-.66s.04-.7.23-1.09c2.03-3.67,3.55-5.77,6.83-9.98,3.31-4.25,5.19-6.32,5.19-9.95,0-3.24-1.13-5.58-3.35-5.58-1.87,0-2.77,1.05-3.24,2.26-.23.59-.35,1.6-.35,2.85,0,1.09-1.48,1.83-2.92,1.83-1.09,0-1.87-.31-1.87-1.48,0-2.5,3.16-6.63,8.39-6.63s8.07,3.12,8.07,6.9c0,4.99-3.59,6.86-7.53,10.53-4.33,3.94-5.3,5.15-6.47,7.14h6.9Z"/>
    <path d="M100.77,45.06h-9.32v-3.59h9.32v3.59Z"/>
    <path d="M109.81,37.26c-.04.58-.16,1.21-.23,2.03,1.44-1.64,3.35-2.42,6.16-2.42,4.84,0,7.88,3.39,7.88,8.46s-3.08,9.4-8.93,9.4c-2.3,0-4.17-.58-5.5-1.33-1.29-.74-2.65-2.03-2.65-3.31,0-.82.97-1.6,2.81-1.6,1.52,0,2.11,1.83,2.54,2.89.47,1.13,1.25,2.14,2.81,2.14,3.04,0,4.29-3.51,4.29-8.15s-2.18-7.02-4.6-7.02-3.86,1.09-4.91,2.85c-.23.39-.39.47-1.05.2-.55-.23-.55-.43-.47-.78.08-.31.19-.74.23-1.09l.94-12.44c0-.16.04-.27.23-.51.2-.19.31-.23.55-.23,1.56.04,4.06.04,6.12.04,1.6,0,4.06-.04,6.63-.16.27,0,.39.16.35.31l-1.29,3.51c-.08.19-.23.27-.39.27-1.56-.04-2.54-.08-3.94-.08h-7.02l-.55,7.02Z"/>
    <path d="M138.63,50.17c3.28,0,4.06-.23,4.84-.94.9-.82,1.48-1.72,2.15-3,.16-.27.27-.31.62-.2.35.12.43.23.39.51-.47,1.99-1.44,5.46-2.11,7.49-2.65-.08-4.72-.08-7.53-.08s-5.15,0-7.72.08c-.39,0-.51-.04-.51-.66s.04-.7.23-1.09c2.03-3.67,3.55-5.77,6.83-9.98,3.31-4.25,5.19-6.32,5.19-9.95,0-3.24-1.13-5.58-3.35-5.58-1.87,0-2.77,1.05-3.24,2.26-.23.59-.35,1.6-.35,2.85,0,1.09-1.48,1.83-2.92,1.83-1.09,0-1.87-.31-1.87-1.48,0-2.5,3.16-6.63,8.39-6.63s8.07,3.12,8.07,6.9c0,4.99-3.59,6.86-7.53,10.53-4.33,3.94-5.3,5.15-6.47,7.14h6.9Z"/>
    <path d="M161.68,45.06h-9.32v-3.59h9.32v3.59Z"/>
    <path d="M177.24,50.17c3.28,0,4.06-.23,4.84-.94.9-.82,1.48-1.72,2.15-3,.16-.27.27-.31.62-.2s.43.23.39.51c-.47,1.99-1.44,5.46-2.11,7.49-2.65-.08-4.72-.08-7.53-.08s-5.15,0-7.72.08c-.39,0-.51-.04-.51-.66s.04-.7.23-1.09c2.03-3.67,3.55-5.77,6.83-9.98,3.31-4.25,5.19-6.32,5.19-9.95,0-3.24-1.13-5.58-3.35-5.58-1.87,0-2.77,1.05-3.24,2.26-.23.59-.35,1.6-.35,2.85,0,1.09-1.48,1.83-2.92,1.83-1.09,0-1.87-.31-1.87-1.48,0-2.5,3.16-6.63,8.39-6.63s8.07,3.12,8.07,6.9c0,4.99-3.59,6.86-7.53,10.53-4.33,3.94-5.3,5.15-6.47,7.14h6.9Z"/>
    <path d="M194.75,40.15c1.09-2.15,3.16-3.16,5.19-3.16,4.95,0,7.53,3.63,7.53,8.66s-3.2,9.09-8.5,9.09-8.93-4.21-8.93-10.96,3.28-11.08,7.92-14.74c1.83-1.44,5.11-3.24,6.51-3.63.31,0,.51,0,1.05.74.51.66.31,1.17-.08,1.17-2.42.08-4.33.9-5.77,1.95-2.73,1.99-4.56,5.73-5.15,10.88h.23ZM195.03,41.75c-.31.7-.51,1.21-.51,2.42,0,6.28,1.72,9.36,4.45,9.36s3.9-3.43,3.9-7.84c0-3.98-1.13-7.18-4.02-7.18-1.72,0-3,1.25-3.82,3.24Z"/>
    <path d="M218.23,30.01c-2.15,0-2.73.31-3.2.86-.58.62-1.01,1.6-1.37,2.57-.12.27-.19.39-.7.27-.43-.04-.47-.16-.43-.43.31-1.99.78-5.11,1.01-7.18,2.57.12,5.15.12,7.84.12s5.11-.04,7.61-.12c.23,0,.31.04.31.82,0,.55,0,.74-.16,1.01-3.78,6.79-5.89,12.25-6.83,16.93-.43,1.99-.58,3.82-.58,5.15,0,1.09.08,1.68.08,2.61,0,1.25-1.48,2.11-2.96,2.11-1.29,0-2.46-.47-2.46-1.72,0-2.96,1.09-6.16,2.81-9.91,1.76-3.82,4.1-7.88,7.49-13.1h-8.46Z"/>
    <path d="M251.89,40.11c0,8.97-3.24,14.62-8.66,14.62s-8.74-5.38-8.74-14.39,3.2-14.74,8.74-14.74,8.66,5.62,8.66,14.51ZM239.06,40.23c0,8.11.82,13.3,4.17,13.3s4.09-5.19,4.09-13.3-.78-13.42-4.09-13.42-4.17,5.27-4.17,13.42Z"/>
  </g>
</svg>